<mxfile modified="2022-12-21T12:58:52.155Z" host="app.diagrams.net" agent="5.0 (Macintosh; Intel Mac OS X 10_15_7) AppleWebKit/537.36 (KHTML, like Gecko) Chrome/108.0.0.0 Safari/537.36" etag="Gy-H3ZyTFj3c0OH3dh7X" version="20.6.1" type="github">
  <diagram id="C2fSY1v2SiZeoUbDoYyL" name="Page-1">
    <mxGraphModel dx="1363" dy="833" grid="1" gridSize="10" guides="1" tooltips="1" connect="1" arrows="1" fold="1" page="1" pageScale="1" pageWidth="1169" pageHeight="827" math="0" shadow="0">
      <root>
        <mxCell id="0" />
        <mxCell id="1" parent="0" />
        <mxCell id="3ne1QswCM8ZiEu4GHsYG-31" value="Gameypay - Microservices Architecture" style="text;html=1;strokeColor=none;fillColor=none;align=center;verticalAlign=middle;whiteSpace=wrap;rounded=0;fontStyle=1;fontSize=20;fontColor=#4D4D4D;" parent="1" vertex="1">
          <mxGeometry x="189.5" y="50" width="790" height="30" as="geometry" />
        </mxCell>
        <mxCell id="3ne1QswCM8ZiEu4GHsYG-32" value="" style="line;strokeWidth=2;html=1;fontSize=20;fontColor=#4D4D4D;" parent="1" vertex="1">
          <mxGeometry x="103.5" y="80" width="960" height="10" as="geometry" />
        </mxCell>
        <mxCell id="41JcHCSGvAG8ils9ij8T-7" style="edgeStyle=orthogonalEdgeStyle;rounded=0;orthogonalLoop=1;jettySize=auto;html=1;exitX=0.5;exitY=1;exitDx=0;exitDy=0;entryX=0.5;entryY=0;entryDx=0;entryDy=0;" edge="1" parent="1" source="41JcHCSGvAG8ils9ij8T-1" target="41JcHCSGvAG8ils9ij8T-3">
          <mxGeometry relative="1" as="geometry" />
        </mxCell>
        <mxCell id="41JcHCSGvAG8ils9ij8T-1" value="CLIENT" style="rounded=1;whiteSpace=wrap;html=1;fillColor=#999999;" vertex="1" parent="1">
          <mxGeometry x="470" y="110" width="120" height="60" as="geometry" />
        </mxCell>
        <mxCell id="41JcHCSGvAG8ils9ij8T-8" style="edgeStyle=orthogonalEdgeStyle;rounded=0;orthogonalLoop=1;jettySize=auto;html=1;" edge="1" parent="1" source="41JcHCSGvAG8ils9ij8T-3" target="41JcHCSGvAG8ils9ij8T-6">
          <mxGeometry relative="1" as="geometry" />
        </mxCell>
        <mxCell id="41JcHCSGvAG8ils9ij8T-3" value="API&lt;br&gt;Gateway" style="shape=hexagon;perimeter=hexagonPerimeter2;whiteSpace=wrap;html=1;fixedSize=1;fillColor=#999999;" vertex="1" parent="1">
          <mxGeometry x="467.5" y="250" width="125" height="110" as="geometry" />
        </mxCell>
        <mxCell id="41JcHCSGvAG8ils9ij8T-4" value="Quest&lt;br&gt;Service" style="rounded=1;whiteSpace=wrap;html=1;fillColor=#999999;" vertex="1" parent="1">
          <mxGeometry x="300" y="490" width="180" height="60" as="geometry" />
        </mxCell>
        <mxCell id="41JcHCSGvAG8ils9ij8T-5" value="User&lt;br&gt;Service" style="rounded=1;whiteSpace=wrap;html=1;fillColor=#999999;" vertex="1" parent="1">
          <mxGeometry x="690" y="490" width="180" height="60" as="geometry" />
        </mxCell>
        <mxCell id="41JcHCSGvAG8ils9ij8T-6" value="Auth&lt;br&gt;Service" style="rounded=1;whiteSpace=wrap;html=1;fillColor=#999999;" vertex="1" parent="1">
          <mxGeometry x="690" y="275" width="180" height="60" as="geometry" />
        </mxCell>
        <mxCell id="41JcHCSGvAG8ils9ij8T-19" value="" style="group" vertex="1" connectable="0" parent="1">
          <mxGeometry x="310" y="560" width="150" height="53" as="geometry" />
        </mxCell>
        <mxCell id="41JcHCSGvAG8ils9ij8T-11" value="gpy_quest" style="rounded=1;whiteSpace=wrap;html=1;fillColor=#999999;" vertex="1" parent="41JcHCSGvAG8ils9ij8T-19">
          <mxGeometry x="60" y="11.5" width="90" height="30" as="geometry" />
        </mxCell>
        <mxCell id="41JcHCSGvAG8ils9ij8T-15" value="" style="group" vertex="1" connectable="0" parent="41JcHCSGvAG8ils9ij8T-19">
          <mxGeometry width="50" height="53" as="geometry" />
        </mxCell>
        <mxCell id="41JcHCSGvAG8ils9ij8T-13" value="" style="aspect=fixed;perimeter=ellipsePerimeter;html=1;align=center;shadow=0;dashed=0;spacingTop=3;image;image=img/lib/active_directory/database.svg;fillColor=#999999;" vertex="1" parent="41JcHCSGvAG8ils9ij8T-15">
          <mxGeometry y="16" width="50" height="37" as="geometry" />
        </mxCell>
        <mxCell id="41JcHCSGvAG8ils9ij8T-14" value="" style="aspect=fixed;perimeter=ellipsePerimeter;html=1;align=center;shadow=0;dashed=0;spacingTop=3;image;image=img/lib/active_directory/database.svg;fillColor=#999999;" vertex="1" parent="41JcHCSGvAG8ils9ij8T-15">
          <mxGeometry width="50" height="37" as="geometry" />
        </mxCell>
        <mxCell id="41JcHCSGvAG8ils9ij8T-20" value="" style="group" vertex="1" connectable="0" parent="1">
          <mxGeometry x="720" y="350" width="150" height="53" as="geometry" />
        </mxCell>
        <mxCell id="41JcHCSGvAG8ils9ij8T-10" value="gpy_auth" style="rounded=1;whiteSpace=wrap;html=1;fillColor=#999999;" vertex="1" parent="41JcHCSGvAG8ils9ij8T-20">
          <mxGeometry x="60" y="10" width="90" height="30" as="geometry" />
        </mxCell>
        <mxCell id="41JcHCSGvAG8ils9ij8T-16" value="" style="group" vertex="1" connectable="0" parent="41JcHCSGvAG8ils9ij8T-20">
          <mxGeometry width="50" height="53" as="geometry" />
        </mxCell>
        <mxCell id="41JcHCSGvAG8ils9ij8T-17" value="" style="aspect=fixed;perimeter=ellipsePerimeter;html=1;align=center;shadow=0;dashed=0;spacingTop=3;image;image=img/lib/active_directory/database.svg;fillColor=#999999;" vertex="1" parent="41JcHCSGvAG8ils9ij8T-16">
          <mxGeometry y="16" width="50" height="37" as="geometry" />
        </mxCell>
        <mxCell id="41JcHCSGvAG8ils9ij8T-18" value="" style="aspect=fixed;perimeter=ellipsePerimeter;html=1;align=center;shadow=0;dashed=0;spacingTop=3;image;image=img/lib/active_directory/database.svg;fillColor=#999999;" vertex="1" parent="41JcHCSGvAG8ils9ij8T-16">
          <mxGeometry width="50" height="37" as="geometry" />
        </mxCell>
        <mxCell id="41JcHCSGvAG8ils9ij8T-21" value="" style="group" vertex="1" connectable="0" parent="1">
          <mxGeometry x="710" y="560" width="150" height="53" as="geometry" />
        </mxCell>
        <mxCell id="41JcHCSGvAG8ils9ij8T-22" value="gpy_user" style="rounded=1;whiteSpace=wrap;html=1;fillColor=#999999;" vertex="1" parent="41JcHCSGvAG8ils9ij8T-21">
          <mxGeometry x="60" y="10" width="90" height="30" as="geometry" />
        </mxCell>
        <mxCell id="41JcHCSGvAG8ils9ij8T-23" value="" style="group" vertex="1" connectable="0" parent="41JcHCSGvAG8ils9ij8T-21">
          <mxGeometry width="50" height="53" as="geometry" />
        </mxCell>
        <mxCell id="41JcHCSGvAG8ils9ij8T-24" value="" style="aspect=fixed;perimeter=ellipsePerimeter;html=1;align=center;shadow=0;dashed=0;spacingTop=3;image;image=img/lib/active_directory/database.svg;fillColor=#999999;" vertex="1" parent="41JcHCSGvAG8ils9ij8T-23">
          <mxGeometry y="16" width="50" height="37" as="geometry" />
        </mxCell>
        <mxCell id="41JcHCSGvAG8ils9ij8T-25" value="" style="aspect=fixed;perimeter=ellipsePerimeter;html=1;align=center;shadow=0;dashed=0;spacingTop=3;image;image=img/lib/active_directory/database.svg;fillColor=#999999;" vertex="1" parent="41JcHCSGvAG8ils9ij8T-23">
          <mxGeometry width="50" height="37" as="geometry" />
        </mxCell>
      </root>
    </mxGraphModel>
  </diagram>
</mxfile>
